<mxfile host="app.diagrams.net" modified="2020-12-01T09:14:27.413Z" agent="5.0 (Windows NT 10.0; Win64; x64) AppleWebKit/537.36 (KHTML, like Gecko) Chrome/87.0.4280.66 Safari/537.36" etag="M_yx2xHUj2pSHCWIcPCA" version="13.10.1" type="github">
  <diagram id="uULQ0KhdrBwxzNjOXBOE" name="Page-1">
    <mxGraphModel dx="981" dy="525" grid="1" gridSize="10" guides="1" tooltips="1" connect="1" arrows="1" fold="1" page="1" pageScale="1" pageWidth="827" pageHeight="1169" math="0" shadow="0">
      <root>
        <mxCell id="0" />
        <mxCell id="1" parent="0" />
        <mxCell id="gvS05ff8z0PJqEDndU3Q-17" value="" style="edgeStyle=orthogonalEdgeStyle;rounded=0;orthogonalLoop=1;jettySize=auto;html=1;" edge="1" parent="1" source="gvS05ff8z0PJqEDndU3Q-1" target="gvS05ff8z0PJqEDndU3Q-16">
          <mxGeometry relative="1" as="geometry" />
        </mxCell>
        <mxCell id="gvS05ff8z0PJqEDndU3Q-41" style="edgeStyle=none;rounded=0;orthogonalLoop=1;jettySize=auto;html=1;entryX=0.5;entryY=1;entryDx=0;entryDy=0;strokeColor=#FF0000;fontSize=24;exitX=0.5;exitY=1;exitDx=0;exitDy=0;" edge="1" parent="1" source="gvS05ff8z0PJqEDndU3Q-1" target="gvS05ff8z0PJqEDndU3Q-16">
          <mxGeometry relative="1" as="geometry">
            <Array as="points">
              <mxPoint x="200" y="260" />
            </Array>
          </mxGeometry>
        </mxCell>
        <mxCell id="gvS05ff8z0PJqEDndU3Q-1" value="app" style="rounded=1;whiteSpace=wrap;html=1;fillColor=#dae8fc;strokeColor=#6c8ebf;" vertex="1" parent="1">
          <mxGeometry x="50" y="170" width="120" height="60" as="geometry" />
        </mxCell>
        <mxCell id="gvS05ff8z0PJqEDndU3Q-15" value="" style="edgeStyle=orthogonalEdgeStyle;rounded=0;orthogonalLoop=1;jettySize=auto;html=1;" edge="1" parent="1" source="gvS05ff8z0PJqEDndU3Q-2" target="gvS05ff8z0PJqEDndU3Q-14">
          <mxGeometry relative="1" as="geometry" />
        </mxCell>
        <mxCell id="gvS05ff8z0PJqEDndU3Q-39" style="rounded=0;orthogonalLoop=1;jettySize=auto;html=1;entryX=0.552;entryY=1.014;entryDx=0;entryDy=0;entryPerimeter=0;strokeColor=#FF0000;fontSize=24;" edge="1" parent="1" target="gvS05ff8z0PJqEDndU3Q-14">
          <mxGeometry relative="1" as="geometry">
            <mxPoint x="100" y="391" as="sourcePoint" />
            <Array as="points">
              <mxPoint x="190" y="420" />
            </Array>
          </mxGeometry>
        </mxCell>
        <mxCell id="gvS05ff8z0PJqEDndU3Q-2" value="dao" style="rounded=1;whiteSpace=wrap;html=1;fillColor=#d5e8d4;strokeColor=#82b366;" vertex="1" parent="1">
          <mxGeometry x="50" y="330" width="120" height="60" as="geometry" />
        </mxCell>
        <mxCell id="gvS05ff8z0PJqEDndU3Q-21" style="edgeStyle=orthogonalEdgeStyle;rounded=0;orthogonalLoop=1;jettySize=auto;html=1;" edge="1" parent="1" source="gvS05ff8z0PJqEDndU3Q-3">
          <mxGeometry relative="1" as="geometry">
            <mxPoint x="400" y="500" as="targetPoint" />
          </mxGeometry>
        </mxCell>
        <mxCell id="gvS05ff8z0PJqEDndU3Q-3" value="personal" style="whiteSpace=wrap;html=1;rounded=1;" vertex="1" parent="1">
          <mxGeometry x="160" y="470" width="100" height="60" as="geometry" />
        </mxCell>
        <mxCell id="gvS05ff8z0PJqEDndU3Q-6" value="&lt;h1 style=&quot;font-size: 4px&quot;&gt;&lt;font style=&quot;font-size: 4px&quot;&gt;&lt;br&gt;&lt;/font&gt;&lt;/h1&gt;&lt;h1 style=&quot;font-size: 4px&quot;&gt;&lt;font style=&quot;font-size: 4px&quot;&gt;SELECT DISTINCT pd.*&lt;/font&gt;&lt;/h1&gt;&lt;h1 style=&quot;font-size: 4px&quot;&gt;&lt;font style=&quot;font-size: 4px&quot;&gt;FROM per_dept AS pd&lt;/font&gt;&lt;/h1&gt;&lt;h1 style=&quot;font-size: 4px&quot;&gt;&lt;font style=&quot;font-size: 4px&quot;&gt;JOIN dao as d ON d.id = pd.daoId&lt;/font&gt;&lt;/h1&gt;&lt;h1 style=&quot;font-size: 4px&quot;&gt;&lt;font style=&quot;font-size: 4px&quot;&gt;WHERE pd.daoId = 1&lt;/font&gt;&lt;/h1&gt;&lt;h1 style=&quot;font-size: 4px&quot;&gt;&lt;font style=&quot;font-size: 4px&quot;&gt;AND d.stateCode = 1&lt;/font&gt;&lt;/h1&gt;&lt;h1 style=&quot;font-size: 4px&quot;&gt;&lt;font style=&quot;font-size: 4px&quot;&gt;AND pd.stateCode = 1&lt;/font&gt;&lt;/h1&gt;&lt;h1 style=&quot;font-size: 4px&quot;&gt;&lt;font style=&quot;font-size: 4px&quot;&gt;AND pd.perId = 1;&lt;/font&gt;&lt;/h1&gt;" style="text;html=1;strokeColor=none;fillColor=none;spacing=5;spacingTop=-20;whiteSpace=wrap;overflow=hidden;rounded=0;" vertex="1" parent="1">
          <mxGeometry x="520" y="435" width="250" height="130" as="geometry" />
        </mxCell>
        <mxCell id="gvS05ff8z0PJqEDndU3Q-7" value="登陆 验证appid和daoid" style="whiteSpace=wrap;html=1;fillColor=#0050ef;strokeColor=#001DBC;fontColor=#ffffff;" vertex="1" parent="1">
          <mxGeometry x="190" y="20" width="150" height="60" as="geometry" />
        </mxCell>
        <mxCell id="gvS05ff8z0PJqEDndU3Q-11" value="perId" style="text;html=1;align=center;verticalAlign=middle;resizable=0;points=[];autosize=1;" vertex="1" parent="1">
          <mxGeometry x="330" y="478" width="40" height="20" as="geometry" />
        </mxCell>
        <mxCell id="gvS05ff8z0PJqEDndU3Q-12" value="询问dao权限" style="text;html=1;align=center;verticalAlign=middle;resizable=0;points=[];autosize=1;" vertex="1" parent="1">
          <mxGeometry x="440" y="440" width="80" height="20" as="geometry" />
        </mxCell>
        <mxCell id="gvS05ff8z0PJqEDndU3Q-13" value="Text" style="text;html=1;align=center;verticalAlign=middle;resizable=0;points=[];autosize=1;rotation=90;" vertex="1" parent="1">
          <mxGeometry x="310" y="350" width="40" height="20" as="geometry" />
        </mxCell>
        <mxCell id="gvS05ff8z0PJqEDndU3Q-14" value="perDept" style="whiteSpace=wrap;html=1;rounded=1;strokeColor=#82b366;fillColor=#d5e8d4;" vertex="1" parent="1">
          <mxGeometry x="230" y="330" width="120" height="60" as="geometry" />
        </mxCell>
        <mxCell id="gvS05ff8z0PJqEDndU3Q-16" value="appAuth" style="whiteSpace=wrap;html=1;rounded=1;strokeColor=#6c8ebf;fillColor=#dae8fc;" vertex="1" parent="1">
          <mxGeometry x="230" y="170" width="120" height="60" as="geometry" />
        </mxCell>
        <mxCell id="gvS05ff8z0PJqEDndU3Q-22" value="" style="shape=flexArrow;endArrow=classic;html=1;" edge="1" parent="1">
          <mxGeometry width="50" height="50" relative="1" as="geometry">
            <mxPoint x="440" y="610" as="sourcePoint" />
            <mxPoint x="440" y="30" as="targetPoint" />
          </mxGeometry>
        </mxCell>
        <mxCell id="gvS05ff8z0PJqEDndU3Q-23" value="appid" style="text;html=1;align=center;verticalAlign=middle;resizable=0;points=[];autosize=1;" vertex="1" parent="1">
          <mxGeometry x="330" y="498" width="40" height="20" as="geometry" />
        </mxCell>
        <mxCell id="gvS05ff8z0PJqEDndU3Q-24" value="daoid" style="text;html=1;align=center;verticalAlign=middle;resizable=0;points=[];autosize=1;" vertex="1" parent="1">
          <mxGeometry x="330" y="518" width="40" height="20" as="geometry" />
        </mxCell>
        <mxCell id="gvS05ff8z0PJqEDndU3Q-25" value="personal" style="shape=umlActor;verticalLabelPosition=bottom;verticalAlign=top;html=1;outlineConnect=0;" vertex="1" parent="1">
          <mxGeometry x="170" y="488" width="20" height="40" as="geometry" />
        </mxCell>
        <mxCell id="gvS05ff8z0PJqEDndU3Q-30" value="询问app权限" style="text;html=1;align=center;verticalAlign=middle;resizable=0;points=[];autosize=1;" vertex="1" parent="1">
          <mxGeometry x="440" y="240" width="80" height="20" as="geometry" />
        </mxCell>
        <mxCell id="gvS05ff8z0PJqEDndU3Q-31" value="statecode=1" style="text;html=1;align=center;verticalAlign=middle;resizable=0;points=[];autosize=1;" vertex="1" parent="1">
          <mxGeometry x="80" y="140" width="80" height="20" as="geometry" />
        </mxCell>
        <mxCell id="gvS05ff8z0PJqEDndU3Q-32" value="statecode=1" style="text;html=1;align=center;verticalAlign=middle;resizable=0;points=[];autosize=1;" vertex="1" parent="1">
          <mxGeometry x="250" y="140" width="80" height="20" as="geometry" />
        </mxCell>
        <mxCell id="gvS05ff8z0PJqEDndU3Q-33" value="statecode=1" style="text;html=1;align=center;verticalAlign=middle;resizable=0;points=[];autosize=1;" vertex="1" parent="1">
          <mxGeometry x="70" y="300" width="80" height="20" as="geometry" />
        </mxCell>
        <mxCell id="gvS05ff8z0PJqEDndU3Q-34" value="statecode=1" style="text;html=1;align=center;verticalAlign=middle;resizable=0;points=[];autosize=1;" vertex="1" parent="1">
          <mxGeometry x="250" y="300" width="80" height="20" as="geometry" />
        </mxCell>
        <mxCell id="gvS05ff8z0PJqEDndU3Q-35" value="&lt;h1 style=&quot;font-size: 4px&quot;&gt;&lt;font style=&quot;font-size: 4px&quot;&gt;&lt;br&gt;&lt;/font&gt;&lt;/h1&gt;&lt;h1 style=&quot;font-size: 4px&quot;&gt;&lt;font style=&quot;font-size: 4px&quot;&gt;SELECT DISTINCT aa.*&lt;/font&gt;&lt;/h1&gt;&lt;h1 style=&quot;font-size: 4px&quot;&gt;&lt;font style=&quot;font-size: 4px&quot;&gt;FROM app_auth AS aa&lt;/font&gt;&lt;/h1&gt;&lt;h1 style=&quot;font-size: 4px&quot;&gt;&lt;font style=&quot;font-size: 4px&quot;&gt;JOIN app as a ON a.id = aa.appId&lt;/font&gt;&lt;/h1&gt;&lt;h1 style=&quot;font-size: 4px&quot;&gt;&lt;font style=&quot;font-size: 4px&quot;&gt;WHERE aa.appId = 2&lt;/font&gt;&lt;/h1&gt;&lt;h1 style=&quot;font-size: 4px&quot;&gt;&lt;font style=&quot;font-size: 4px&quot;&gt;AND aa.stateCode = 1&lt;/font&gt;&lt;/h1&gt;&lt;h1 style=&quot;font-size: 4px&quot;&gt;&lt;font style=&quot;font-size: 4px&quot;&gt;AND a.stateCode = 1&lt;/font&gt;&lt;/h1&gt;&lt;h1 style=&quot;font-size: 4px&quot;&gt;&lt;font style=&quot;font-size: 4px&quot;&gt;AND aa.perId = 1;&lt;/font&gt;&lt;/h1&gt;" style="text;html=1;strokeColor=none;fillColor=none;spacing=5;spacingTop=-20;whiteSpace=wrap;overflow=hidden;rounded=0;" vertex="1" parent="1">
          <mxGeometry x="530" y="240" width="250" height="140" as="geometry" />
        </mxCell>
        <mxCell id="gvS05ff8z0PJqEDndU3Q-37" value="&lt;h1 style=&quot;text-align: left ; font-size: 4px&quot;&gt;d.id = pd.daoId&lt;/h1&gt;" style="text;html=1;align=center;verticalAlign=middle;resizable=0;points=[];autosize=1;fontSize=24;" vertex="1" parent="1">
          <mxGeometry x="140" y="405" width="100" height="40" as="geometry" />
        </mxCell>
        <mxCell id="gvS05ff8z0PJqEDndU3Q-40" value="&lt;h1 style=&quot;text-align: left ; font-size: 4px&quot;&gt;a.id = aa.appId&lt;/h1&gt;" style="text;html=1;align=center;verticalAlign=middle;resizable=0;points=[];autosize=1;fontSize=24;" vertex="1" parent="1">
          <mxGeometry x="150" y="240" width="100" height="40" as="geometry" />
        </mxCell>
      </root>
    </mxGraphModel>
  </diagram>
</mxfile>
